# xmcd CD database file
#
# Track frame offsets:
#	150
#	18157
#	43150
#	63452
#	85250
#	102705
#	124475
#	151822
#	174987
#	193097
#	210225
#
# Disc length: 3056 seconds
#
# Revision: 0
# Processed by: cddbd v1.5.1PL0 Copyright (c) Steve Scherf et al.
# Submitted via: CDex 1.51
#
DISCID=920bee0b
DTITLE=Akashi Masao Group - 0609140112 〜CODA #1〜
DYEAR=1900
DGENRE=Blues
TTITLE0=Everybody Needs Whats Is On The Stage
TTITLE1=Shades Of The Blues
TTITLE2=Feel Like A Champion
TTITLE3=Situation(live)
TTITLE4=Hard Times(live)
TTITLE5=Palace Of The King
TTITLE6=Train Kept A Rollin'
TTITLE7=All Your Love
TTITLE8=Purple Haze
TTITLE9=Chained
TTITLE10=All Shook Up
EXTD=YEAR: xxxx
EXTT0=
EXTT1=
EXTT2=
EXTT3=
EXTT4=
EXTT5=
EXTT6=
EXTT7=
EXTT8=
EXTT9=
EXTT10=
PLAYORDER=
